<svg fill="#000000" xmlns="http://www.w3.org/2000/svg"  viewBox="0 0 24 24" width="24px" height="24px"><path d="M 18 1 C 14.67619 1 12 3.6761905 12 7 L 12 8 L 1 8 L 1 22 L 16 22 L 16 8 L 14 8 L 14 7 C 14 4.7238095 15.72381 3 18 3 C 20.27619 3 22 4.7238095 22 7 L 22 9 L 24 9 L 24 7 C 24 3.6761905 21.32381 1 18 1 z M 8.5078125 13 C 9.6078125 13 10.507812 13.9 10.507812 15 C 10.507812 16.1 9.6078125 17 8.5078125 17 C 7.4078125 17 6.5078125 16.1 6.5078125 15 C 6.5078125 13.9 7.4078125 13 8.5078125 13 z"/></svg>